<?xml version="1.0" encoding="utf-8"?>
<!-- Generator: Adobe Illustrator 18.0.0, SVG Export Plug-In . SVG Version: 6.00 Build 0)  -->
<!DOCTYPE svg PUBLIC "-//W3C//DTD SVG 1.1//EN" "http://www.w3.org/Graphics/SVG/1.1/DTD/svg11.dtd">
<svg version="1.1" id="Layer_1" xmlns="http://www.w3.org/2000/svg" xmlns:xlink="http://www.w3.org/1999/xlink" x="0px" y="0px"
	 viewBox="0 0 612 641" enable-background="new 0 0 612 641" xml:space="preserve">
<g>
	<g>
		<path d="M601.8,585L424.4,407.6c33.8-40.6,54.2-92.8,54.2-149.7c0-129.1-105-234.2-234.2-234.2c-129.1,0-234.2,105.1-234.2,234.2
			c0,129.1,105.1,234.2,234.2,234.2c56.9,0,109-20.4,149.7-54.2l177.4,177.4L601.8,585z M244.4,66.6c105.5,0,191.3,85.8,191.3,191.3
			c0,105.5-85.8,191.3-191.3,191.3c-105.5,0-191.3-85.8-191.3-191.3C53.1,152.4,138.9,66.6,244.4,66.6z"/>
	</g>
</g>
</svg>
